<svg xmlns="http://www.w3.org/2000/svg" width="303.707" height="525.418"><path d="M42.487 524.228c0 .66.53 1.19 1.19 1.19h258.84c.66 0 1.19-.53 1.19-1.19s-.53-1.19-1.19-1.19H43.677c-.66 0-1.19.53-1.19 1.19z" fill="#484565"/><path d="M178.607.328s-21.91-5.31-35.17 26.77c-11.05 26.74-18.89 41.02-9.92 50.72 3.21 3.47 7.79 5.34 12.51 5.5l50.5 1.66s18.54-48.62 7.27-66.2c-11.27-17.59-25.19-18.45-25.19-18.45z" fill="#2f2e41"/><path fill="#f6a6a9" d="M189.067 80.938l-24.29 7.99v-34.97h22.04l2.25 26.98zm-18.64 423.75h-22.76l-13.19-121.58h35.17l.78 121.58z"/><path d="M125.507 524.228c-2.39 0-4.52-.06-6.13-.21-6.05-.55-11.81-5.01-14.71-7.62a4.112 4.112 0 01-1.04-4.65 4.09 4.09 0 012.66-2.36l15.97-4.56 25.86-17.45.29.52c.11.19 2.65 4.77 3.5 7.86.32 1.18.24 2.16-.25 2.91-.34.53-.81.83-1.2 1 .47.49 1.94 1.48 6.45 2.2 6.6 1.05 7.98-5.79 8.04-6.08l.04-.23.2-.13c3.14-2.02 5.07-2.94 5.74-2.75.42.12 1.11.33 2.98 18.95.19.58 1.5 4.87.61 8.96-.97 4.46-20.44 2.92-24.34 2.57-.11.01-14.69 1.05-24.68 1.05v.02h.01z" fill="#2f2e41"/><path fill="#f6a6a9" d="M221.827 504.688h-22.75l-13.2-121.58h35.17l.78 121.58z"/><path d="M176.917 524.228c-2.39 0-4.52-.06-6.13-.21-6.05-.55-11.81-5.01-14.71-7.62a4.111 4.111 0 01-1.04-4.65 4.09 4.09 0 012.66-2.36l15.97-4.56 25.86-17.45.29.52c.11.19 2.65 4.77 3.5 7.86.32 1.18.24 2.16-.25 2.91-.34.53-.81.83-1.2 1 .47.49 1.94 1.48 6.45 2.2 6.6 1.05 7.98-5.79 8.04-6.08l.04-.23.2-.13c3.14-2.02 5.07-2.94 5.74-2.75.42.12 1.11.33 2.98 18.95.19.58 1.5 4.87.61 8.96-.97 4.46-20.44 2.92-24.34 2.57-.11.01-14.69 1.05-24.68 1.05v.02h.01z" fill="#2f2e41"/><path fill="#dddedf" d="M228.377 206.068h-110.56l39.74-130.79h44.08l26.74 130.79z"/><path d="M114.807 279.458c-1.32 8.01-6.66 13.76-11.93 12.83-5.27-.93-8.48-8.17-7.16-16.18.48-3.21 1.75-6.24 3.7-8.85l6.02-33.87 16.39 3.43-7.68 33.02c1.01 3.12 1.24 6.42.67 9.62h-.01z" fill="#f6a6a9"/><path d="M164.517 75.298s-27.46-.72-30.35 6.5c-2.89 7.23-36.85 179.21-36.85 179.21h22.4l44.8-185.71z" fill="#dddedf"/><circle cx="170.347" cy="38.008" r="24.21" fill="#f6a6a9"/><path d="M174.147 8.318s-31.08 46.23-25.85 75.07l-18.08-11.33s12.73-58.38 31.7-62.91l12.23-.84v.01zm31.25 197.75h-72.55l-39.7 162.93c-.73 6.88 3.63 13.3 10.32 15.09 21.78 5.83 74.04 14.1 153.15-8.92 7.61-2.21 11.93-10.24 9.54-17.8l-60.76-151.29v-.01z" fill="#2f2e41"/><path d="M107.547 98.478l-.5-.5-.5.5c-24.33-24.31-63.76-24.28-88.07.05-24.31 24.34-24.8 64.26-.47 88.57l89.1 89.01 89.04-89.12c24.31-24.34 23.8-64.26-.52-88.57-24.33-24.31-63.76-24.28-88.07.05s-.01.01-.01.01z" fill="#6c63ff"/><path d="M173.347 87.518l20.1-10.31a30.98 30.98 0 0127.66 3.09c25 16.26 74.28 52.11 53.1 69.83-27.91 23.36-65.64-18.07-65.64-18.07l-35.22-44.54z" fill="#dddedf"/><path d="M172.907 105.138c-6.99-4.12-10.42-11.18-7.65-15.77 2.77-4.58 10.68-4.95 17.68-.83 2.82 1.61 5.19 3.89 6.91 6.65l29.4 17.86-9.12 14.04-28.02-19.1c-3.28-.19-6.44-1.17-9.21-2.86h.01v.01z" fill="#f6a6a9"/><path fill="#dddedf" d="M192.887 121.328l8.36-19.97 40.85 13.52-18.27 30.41-30.94-23.96z"/></svg>